<?xml version="1.0" encoding="UTF-8" standalone="no"?>
<!-- Created with Inkscape (http://www.inkscape.org/) -->

<svg
   xmlns:dc="http://purl.org/dc/elements/1.1/"
   xmlns:cc="http://creativecommons.org/ns#"
   xmlns:rdf="http://www.w3.org/1999/02/22-rdf-syntax-ns#"
   xmlns:svg="http://www.w3.org/2000/svg"
   xmlns="http://www.w3.org/2000/svg"
   xmlns:sodipodi="http://sodipodi.sourceforge.net/DTD/sodipodi-0.dtd"
   xmlns:inkscape="http://www.inkscape.org/namespaces/inkscape"
   width="512"
   height="512"
   viewBox="0 0 512.00001 512.00001"
   id="svg2"
   version="1.1"
   inkscape:version="0.91 r13725"
   sodipodi:docname="Profajelly2.svg">
  <defs
     id="defs4" />
  <sodipodi:namedview
     id="base"
     pagecolor="#ffffff"
     bordercolor="#666666"
     borderopacity="1.0"
     inkscape:pageopacity="0.0"
     inkscape:pageshadow="2"
     inkscape:zoom="2.2392792"
     inkscape:cx="179.2389"
     inkscape:cy="285.51487"
     inkscape:document-units="px"
     inkscape:current-layer="layer4"
     showgrid="false"
     units="px"
     inkscape:showpageshadow="false"
     inkscape:window-width="1920"
     inkscape:window-height="1017"
     inkscape:window-x="-8"
     inkscape:window-y="-8"
     inkscape:window-maximized="1"
     showguides="true"
     inkscape:guide-bbox="true" />
  <metadata
     id="metadata7">
    <rdf:RDF>
      <cc:Work
         rdf:about="">
        <dc:format>image/svg+xml</dc:format>
        <dc:type
           rdf:resource="http://purl.org/dc/dcmitype/StillImage" />
        <dc:title />
      </cc:Work>
    </rdf:RDF>
  </metadata>
  <g
     inkscape:label="Layer 1"
     inkscape:groupmode="layer"
     id="layer1"
     transform="translate(0,-540.36216)"
     style="display:inline">
    <path
       sodipodi:nodetypes="csssssccssssscccccc"
       inkscape:connector-curvature="0"
       id="path4343"
       d="m 155.54362,905.10525 c -5.71811,-2.10174 -11.20577,-5.17458 -16.25865,-9.29678 -20.92414,-17.07023 -27.20899,-49.42736 -8.70462,-71.38862 14.06995,-16.6984 40.43088,-21.63769 58.11841,-6.13374 13.13212,11.51091 16.94048,32.80707 3.96769,46.89248 -9.37433,10.17834 -26.4898,13.05321 -37.59724,2.14847 -3.89217,-3.82114 -6.18283,-8.7454 -6.61936,-14.13605 0.19674,-10.73637 15.04834,-12.42861 19.01704,-1.53943 0.0485,0.59831 0.51805,1.6172 0.96874,2.05967 2.44319,2.39861 7.41787,1.55785 10.19605,-1.4586 4.89681,-5.31679 3.24073,-14.57706 -2.5101,-19.61793 -8.84787,-7.75557 -23.24859,-5.0609 -30.95021,4.07947 -11.01328,13.07071 -7.04662,33.52416 6.17424,44.30994 18.02027,14.70119 45.49397,9.2175 59.81055,-8.80993 10.2986,-12.96796 18.2709,-33.32564 3.45548,-63.21963 l 19.81028,1.7428 c 9.43943,27.86193 6.09598,55.1828 -8.32502,73.34167 -16.6811,21.00482 -45.77485,30.13378 -70.55331,21.02621 z"
       style="color:#000000;font-style:normal;font-variant:normal;font-weight:normal;font-stretch:normal;font-size:medium;line-height:normal;font-family:sans-serif;text-indent:0;text-align:start;text-decoration:none;text-decoration-line:none;text-decoration-style:solid;text-decoration-color:#000000;letter-spacing:normal;word-spacing:normal;text-transform:none;direction:ltr;block-progression:tb;writing-mode:lr-tb;baseline-shift:baseline;text-anchor:start;white-space:normal;clip-rule:nonzero;display:inline;overflow:visible;visibility:visible;opacity:1;isolation:auto;mix-blend-mode:normal;color-interpolation:sRGB;color-interpolation-filters:linearRGB;solid-color:#000000;solid-opacity:1;fill:#b0c1ff;fill-opacity:1;fill-rule:evenodd;stroke:none;stroke-width:2;stroke-linecap:butt;stroke-linejoin:miter;stroke-miterlimit:4;stroke-dasharray:none;stroke-dashoffset:0;stroke-opacity:1;color-rendering:auto;image-rendering:auto;shape-rendering:auto;text-rendering:auto;enable-background:accumulate" />
    <path
       style="opacity:1;fill:#ae0789;fill-opacity:0.23529412;stroke:none;stroke-width:1;stroke-linecap:round;stroke-linejoin:round;stroke-miterlimit:4;stroke-dasharray:none;stroke-opacity:1"
       d="m 122.34961,298.38281 c -2.432,6.83565 -3.18646,14.05466 -2.45117,21.14649 a 10.691971,10.691971 0 0 0 0.28906,0.0156 10.691971,10.691971 0 0 0 10.69336,-10.69336 10.691971,10.691971 0 0 0 -8.53125,-10.46875 z"
       transform="translate(0,540.36216)"
       id="path4175"
       inkscape:connector-curvature="0" />
    <path
       inkscape:connector-curvature="0"
       id="path4169"
       d="m 334.95557,766.10253 c 1.01255,5.06017 1.54777,10.29329 1.54777,15.65154 -42.77446,21.93805 -113.19937,23.13284 -158.68664,0 0,-5.26371 0.51757,-10.40632 1.4956,-15.38322 a 96.196456,28.417388 0 0 0 -18.02659,16.52106 96.196456,28.417388 0 0 0 96.19603,28.41746 96.196456,28.417388 0 0 0 96.19604,-28.41746 96.196456,28.417388 0 0 0 -18.72221,-16.78938 z"
       style="opacity:1;fill:#b0c1ff;fill-opacity:1;stroke:none;stroke-width:2;stroke-linecap:round;stroke-linejoin:round;stroke-miterlimit:4;stroke-dasharray:none;stroke-opacity:1" />
    <path
       style="opacity:1;fill:#ae0789;fill-opacity:0.23529412;stroke:none;stroke-width:1;stroke-linecap:round;stroke-linejoin:round;stroke-miterlimit:4;stroke-dasharray:none;stroke-opacity:0.66666667"
       d="m 164.6875,235.21094 a 96.196456,28.417388 0 0 0 -3.40234,7.31836 96.196456,28.417388 0 0 0 2.85156,6.72656 7.1049218,7.1049218 0 0 0 6.38086,-7.06055 7.1049218,7.1049218 0 0 0 -5.83008,-6.98437 z"
       transform="translate(0,540.36216)"
       id="circle4301"
       inkscape:connector-curvature="0" />
    <path
       id="path4305"
       d="m 177.8167,781.75407 c 0,-5.26371 0.51757,-10.40632 1.4956,-15.38322 -11.69465,4.81684 -17.99764,10.59342 -18.02659,16.52106 -1.4e-4,15.69446 43.06826,28.41739 96.19603,28.41746 0,0 -80.45084,-4.74668 -79.66504,-29.5553 z"
       style="opacity:1;fill:#ffffff;fill-opacity:0.47058824;stroke:none;stroke-width:2;stroke-linecap:round;stroke-linejoin:round;stroke-miterlimit:4;stroke-dasharray:none;stroke-opacity:1"
       inkscape:connector-curvature="0"
       sodipodi:nodetypes="ccccc" />
    <path
       style="opacity:1;fill:none;fill-opacity:1;stroke:#000000;stroke-width:2;stroke-linecap:round;stroke-linejoin:round;stroke-miterlimit:4;stroke-dasharray:none;stroke-opacity:1"
       d="m 334.95557,766.10253 c 1.01255,5.06017 1.54777,10.29329 1.54777,15.65154 -42.77446,21.93805 -113.19937,23.13284 -158.68664,0 0,-5.26371 0.51757,-10.40632 1.4956,-15.38322 a 96.196456,28.417388 0 0 0 -18.02659,16.52106 96.196456,28.417388 0 0 0 96.19603,28.41746 96.196456,28.417388 0 0 0 96.19604,-28.41746 96.196456,28.417388 0 0 0 -18.72221,-16.78938 z"
       id="path4180"
       inkscape:connector-curvature="0" />
    <path
       style="opacity:1;fill:#b0c1ff;fill-opacity:1;stroke:none;stroke-width:2;stroke-linecap:round;stroke-linejoin:round;stroke-miterlimit:4;stroke-dasharray:none;stroke-opacity:1"
       d="m 243.99037,703.50511 c -37.55093,6.27435 -66.17367,38.91641 -66.17367,78.24896 45.48727,23.13284 115.91218,21.93805 158.68664,0 0,-39.33255 -28.6215,-71.97461 -66.17244,-78.24896 -1.39394,-0.32979 -1.67877,-3.98494 0,-8.61082 5.85107,-20.47817 -26.34053,-8.51057 -26.34053,8.61082 z"
       id="path4182"
       inkscape:connector-curvature="0"
       sodipodi:nodetypes="cccccc" />
    <circle
       r="7.1049218"
       cy="796.03851"
       cx="232.64064"
       id="circle4299"
       style="opacity:1;fill:#ffffff;fill-opacity:0.23529412;stroke:none;stroke-width:1;stroke-linecap:round;stroke-linejoin:round;stroke-miterlimit:4;stroke-dasharray:none;stroke-opacity:0.66666667" />
    <circle
       r="7.6972284"
       cy="787.43036"
       cx="326.05191"
       id="circle4297"
       style="opacity:1;fill:#ae0789;fill-opacity:0.23529412;stroke:none;stroke-width:1;stroke-linecap:round;stroke-linejoin:round;stroke-miterlimit:4;stroke-dasharray:none;stroke-opacity:0.66666667" />
    <path
       sodipodi:nodetypes="ccccc"
       inkscape:connector-curvature="0"
       id="path4204"
       d="m 177.8167,781.75407 c 45.48727,23.13284 115.91218,21.93805 158.68664,0 0,-9.83314 -1.78885,-19.24812 -5.05884,-27.93749 -3.27,-8.68936 -8.02116,-16.65312 -13.94578,-23.58381 40.68348,77.19189 -76.93848,74.08733 -139.68202,51.5213 z"
       style="opacity:1;fill:#000000;fill-opacity:0.19607843;stroke:none;stroke-width:2;stroke-linecap:round;stroke-linejoin:round;stroke-miterlimit:4;stroke-dasharray:none;stroke-opacity:1" />
    <ellipse
       style="opacity:1;fill:#ffffff;fill-opacity:0.47058824;stroke:none;stroke-width:2;stroke-linecap:round;stroke-linejoin:round;stroke-miterlimit:4;stroke-dasharray:none;stroke-opacity:1"
       id="path4206"
       cx="721.2796"
       cy="233.9581"
       rx="7.8710403"
       ry="18.860794"
       transform="matrix(0.56829088,0.82282773,-0.82282773,0.56829088,0,0)" />
    <path
       id="path4211"
       d="m 334.95557,766.10253 c 1.01255,5.06017 1.54777,10.29329 1.54777,15.65154 -42.77446,21.93805 -113.19937,23.13284 -158.68664,0 31.83034,25.57047 171.3939,33.07488 175.86108,1.13784 -0.04,-6.04212 -6.59811,-11.9232 -18.72221,-16.78938 z"
       style="opacity:1;fill:#000000;fill-opacity:0.19607843;stroke:none;stroke-width:2;stroke-linecap:round;stroke-linejoin:round;stroke-miterlimit:4;stroke-dasharray:none;stroke-opacity:1"
       inkscape:connector-curvature="0"
       sodipodi:nodetypes="ccccc" />
    <ellipse
       style="opacity:1;fill:#ffffff;fill-opacity:0.47058824;stroke:none;stroke-width:2;stroke-linecap:round;stroke-linejoin:round;stroke-miterlimit:4;stroke-dasharray:none;stroke-opacity:1"
       id="path4279"
       cx="-186.10028"
       cy="712.74799"
       rx="7.7796259"
       ry="2.2146382"
       transform="matrix(0.82021806,-0.57205099,0.57205099,0.82021806,0,0)" />
    <path
       style="fill:#000000;fill-opacity:0.19607843;fill-rule:evenodd;stroke:none;stroke-width:2;stroke-linecap:butt;stroke-linejoin:miter;stroke-miterlimit:4;stroke-dasharray:none;stroke-opacity:1"
       d="m 269.57143,704.23787 c -3.6674,2.44992 -10.03501,2.33852 -14.76997,2.67296 9.00366,1.20511 28.09884,4.06947 35.26851,3.4406 -6.59552,-2.89408 -15.19919,-5.50415 -20.49854,-6.11356 z"
       id="path4281"
       inkscape:connector-curvature="0"
       sodipodi:nodetypes="cccc" />
    <circle
       r="6.7405663"
       cy="843.95111"
       cx="222.62086"
       id="circle4189"
       style="opacity:1;fill:#ffffff;fill-opacity:0.39215686;stroke:none;stroke-width:1;stroke-linecap:round;stroke-linejoin:round;stroke-miterlimit:4;stroke-dasharray:none;stroke-opacity:1" />
    <path
       style="opacity:1;fill:#ae0789;fill-opacity:0.23529412;stroke:none;stroke-width:1;stroke-linecap:round;stroke-linejoin:round;stroke-miterlimit:4;stroke-dasharray:none;stroke-opacity:1"
       d="m 238.45703,286.32227 a 6.4409466,6.4409466 0 0 0 -6.06836,6.42773 6.4409466,6.4409466 0 0 0 6.44141,6.44141 6.4409466,6.4409466 0 0 0 0.87304,-0.0664 c -0.10789,-4.18952 -0.51867,-8.46829 -1.24609,-12.80273 z"
       transform="translate(0,540.36216)"
       id="path4168"
       inkscape:connector-curvature="0" />
    <path
       style="opacity:1;fill:#ae0789;fill-opacity:0.23529412;stroke:none;stroke-width:1;stroke-linecap:round;stroke-linejoin:round;stroke-miterlimit:4;stroke-dasharray:none;stroke-opacity:1"
       d="m 234.45117,328.30469 a 6.6985841,6.6985841 0 0 0 -6.69922,6.69726 6.6985841,6.6985841 0 0 0 1.53321,4.25782 c 2.2058,-3.40366 4.07683,-7.06098 5.59375,-10.9336 a 6.6985841,6.6985841 0 0 0 -0.42774,-0.0215 z"
       transform="translate(0,540.36216)"
       id="path4170"
       inkscape:connector-curvature="0" />
    <path
       style="opacity:1;fill:#ffffff;fill-opacity:0.39215686;stroke:none;stroke-width:1;stroke-linecap:round;stroke-linejoin:round;stroke-miterlimit:4;stroke-dasharray:none;stroke-opacity:1"
       d="m 212.23633,350.22656 a 6.7405663,6.7405663 0 0 0 -6.74024,6.74024 6.7405663,6.7405663 0 0 0 0.86914,3.29492 c 3.91383,-2.13902 7.63156,-4.6724 11.06055,-7.58789 a 6.7405663,6.7405663 0 0 0 -5.18945,-2.44727 z"
       transform="translate(0,540.36216)"
       id="circle4191"
       inkscape:connector-curvature="0" />
    <path
       style="opacity:1;fill:#ae0789;fill-opacity:0.23529412;stroke:none;stroke-width:1;stroke-linecap:round;stroke-linejoin:round;stroke-miterlimit:4;stroke-dasharray:none;stroke-opacity:1"
       d="m 210.63281,332.47852 c -2.28553,2.77062 -4.88214,5.23305 -7.71093,7.35742 a 5.4103951,5.4103951 0 0 0 4.47656,2.38086 5.4103951,5.4103951 0 0 0 5.41015,-5.41016 5.4103951,5.4103951 0 0 0 -2.17578,-4.32812 z"
       transform="translate(0,540.36216)"
       id="path4166"
       inkscape:connector-curvature="0" />
    <path
       style="opacity:1;fill:#ae0789;fill-opacity:0.23529412;stroke:none;stroke-width:1;stroke-linecap:round;stroke-linejoin:round;stroke-miterlimit:4;stroke-dasharray:none;stroke-opacity:1"
       d="m 157.1582,357.41797 a 5.9256706,5.9256706 0 0 0 -5.90429,5.54297 c 1.41292,0.65678 2.84337,1.24987 4.28906,1.78125 2.13906,0.78623 4.31324,1.4268 6.50586,1.94531 a 5.9256706,5.9256706 0 0 0 1.03515,-3.34375 5.9256706,5.9256706 0 0 0 -5.92578,-5.92578 z"
       transform="translate(0,540.36216)"
       id="path4164"
       inkscape:connector-curvature="0" />
    <path
       style="opacity:1;fill:#ffffff;fill-opacity:0.39215686;stroke:none;stroke-width:1;stroke-linecap:round;stroke-linejoin:round;stroke-miterlimit:4;stroke-dasharray:none;stroke-opacity:1"
       d="m 139.04297,318.40234 a 6.7405663,6.7405663 0 0 0 -4.96094,6.50196 6.7405663,6.7405663 0 0 0 6.74024,6.74023 6.7405663,6.7405663 0 0 0 2.50976,-0.48828 c -2.26435,-3.96123 -3.72872,-8.32666 -4.28906,-12.75391 z"
       transform="translate(0,540.36216)"
       id="circle4183"
       inkscape:connector-curvature="0" />
    <path
       style="opacity:1;fill:#ffffff;fill-opacity:0.39215686;stroke:none;stroke-width:1;stroke-linecap:round;stroke-linejoin:round;stroke-miterlimit:4;stroke-dasharray:none;stroke-opacity:1"
       d="m 148.47461,285.55273 a 6.7405663,6.7405663 0 0 0 -6.74023,6.74219 6.7405663,6.7405663 0 0 0 2.50195,5.23438 c 0.29925,-0.39843 0.61031,-0.79174 0.93555,-1.17774 2.5579,-3.03575 5.8603,-5.34157 9.44726,-6.80859 a 6.7405663,6.7405663 0 0 0 -6.14453,-3.99024 z"
       transform="translate(0,540.36216)"
       id="path4181"
       inkscape:connector-curvature="0" />
    <path
       style="opacity:1;fill:#ffffff;fill-opacity:0.39215686;stroke:none;stroke-width:1;stroke-linecap:round;stroke-linejoin:round;stroke-miterlimit:4;stroke-dasharray:none;stroke-opacity:1"
       d="m 195.11133,313.0625 a 6.7405663,6.7405663 0 0 0 -6.74024,6.74023 6.7405663,6.7405663 0 0 0 3.45703,5.88282 c 0.28544,-0.28354 0.56523,-0.57309 0.8379,-0.86914 2.94777,-3.2006 5.02185,-6.77568 6.32421,-10.52149 a 6.7405663,6.7405663 0 0 0 -3.8789,-1.23242 z"
       transform="translate(0,540.36216)"
       id="circle4187"
       inkscape:connector-curvature="0" />
    <path
       style="color:#000000;font-style:normal;font-variant:normal;font-weight:normal;font-stretch:normal;font-size:medium;line-height:normal;font-family:sans-serif;text-indent:0;text-align:start;text-decoration:none;text-decoration-line:none;text-decoration-style:solid;text-decoration-color:#000000;letter-spacing:normal;word-spacing:normal;text-transform:none;direction:ltr;block-progression:tb;writing-mode:lr-tb;baseline-shift:baseline;text-anchor:start;white-space:normal;clip-rule:nonzero;display:inline;overflow:visible;visibility:visible;opacity:1;isolation:auto;mix-blend-mode:normal;color-interpolation:sRGB;color-interpolation-filters:linearRGB;solid-color:#000000;solid-opacity:1;fill:none;fill-opacity:1;fill-rule:evenodd;stroke:#000000;stroke-width:2;stroke-linecap:butt;stroke-linejoin:miter;stroke-miterlimit:4;stroke-dasharray:none;stroke-dashoffset:0;stroke-opacity:1;color-rendering:auto;image-rendering:auto;shape-rendering:auto;text-rendering:auto;enable-background:accumulate"
       d="m 155.54362,905.10525 c -5.71811,-2.10174 -11.20577,-5.17458 -16.25865,-9.29678 -20.92414,-17.07023 -27.20899,-49.42736 -8.70462,-71.38862 14.06995,-16.6984 40.43088,-21.63769 58.11841,-6.13374 13.13212,11.51091 16.94048,32.80707 3.96769,46.89248 -9.37433,10.17834 -26.4898,13.05321 -37.59724,2.14847 -3.89217,-3.82114 -6.18283,-8.7454 -6.61936,-14.13605 0.19674,-10.73637 15.04834,-12.42861 19.01704,-1.53943 0.0485,0.59831 0.51805,1.6172 0.96874,2.05967 2.44319,2.39861 7.41787,1.55785 10.19605,-1.4586 4.89681,-5.31679 3.24073,-14.57706 -2.5101,-19.61793 -8.84787,-7.75557 -23.24859,-5.0609 -30.95021,4.07947 -11.01328,13.07071 -7.04662,33.52416 6.17424,44.30994 18.02027,14.70119 45.49397,9.2175 59.81055,-8.80993 10.2986,-12.96796 18.2709,-33.32564 3.45548,-63.21963 l 19.81028,1.7428 c 9.43943,27.86193 6.09598,55.1828 -8.32502,73.34167 -16.6811,21.00482 -45.77485,30.13378 -70.55331,21.02621 z"
       id="path4171"
       inkscape:connector-curvature="0"
       sodipodi:nodetypes="csssssccssssscccccc" />
    <path
       style="color:#000000;font-style:normal;font-variant:normal;font-weight:normal;font-stretch:normal;font-size:medium;line-height:normal;font-family:sans-serif;text-indent:0;text-align:start;text-decoration:none;text-decoration-line:none;text-decoration-style:solid;text-decoration-color:#000000;letter-spacing:normal;word-spacing:normal;text-transform:none;direction:ltr;block-progression:tb;writing-mode:lr-tb;baseline-shift:baseline;text-anchor:start;white-space:normal;clip-rule:nonzero;display:inline;overflow:visible;visibility:visible;opacity:1;isolation:auto;mix-blend-mode:normal;color-interpolation:sRGB;color-interpolation-filters:linearRGB;solid-color:#000000;solid-opacity:1;fill:#b0c1ff;fill-opacity:1;fill-rule:evenodd;stroke:none;stroke-width:2;stroke-linecap:butt;stroke-linejoin:miter;stroke-miterlimit:4;stroke-dasharray:none;stroke-dashoffset:0;stroke-opacity:1;color-rendering:auto;image-rendering:auto;shape-rendering:auto;text-rendering:auto;enable-background:accumulate"
       d="m 356.45638,905.10525 c 5.7181,-2.10174 11.20576,-5.17458 16.25865,-9.29678 20.92413,-17.07023 27.20899,-49.42736 8.70461,-71.38862 -14.06995,-16.6984 -40.43087,-21.63769 -58.11841,-6.13374 -13.13212,11.51091 -16.94048,32.80707 -3.96769,46.89248 9.37433,10.17834 26.4898,13.05321 37.59725,2.14847 3.89216,-3.82114 6.18282,-8.7454 6.61935,-14.13605 -0.19673,-10.73637 -15.04833,-12.42861 -19.01704,-1.53943 -0.0485,0.59831 -0.51805,1.6172 -0.96873,2.05967 -2.4432,2.39861 -7.41788,1.55785 -10.19606,-1.4586 -4.89681,-5.31679 -3.24073,-14.57706 2.5101,-19.61793 8.84787,-7.75557 23.24859,-5.0609 30.95021,4.07947 11.01328,13.07071 7.04662,33.52416 -6.17424,44.30994 -18.02026,14.70119 -45.49397,9.2175 -59.81055,-8.80993 -10.2986,-12.96796 -18.2709,-33.32564 -3.45549,-63.21963 l -19.81027,1.7428 c -9.43943,27.86193 -6.09598,55.1828 8.32502,73.34167 16.6811,21.00482 45.77485,30.13378 70.55331,21.02621 z"
       id="path4192"
       inkscape:connector-curvature="0"
       sodipodi:nodetypes="csssssccssssscccccc" />
    <path
       style="opacity:1;fill:#ae0789;fill-opacity:0.23529412;stroke:none;stroke-width:1;stroke-linecap:round;stroke-linejoin:round;stroke-miterlimit:4;stroke-dasharray:none;stroke-opacity:0.66666667"
       d="m 390.49805,301.01562 a 9.5326004,9.5326004 0 0 0 -8.93555,9.51172 9.5326004,9.5326004 0 0 0 9.53125,9.53321 9.5326004,9.5326004 0 0 0 0.94922,-0.0586 c 0.71681,-6.33982 0.24925,-12.78943 -1.54492,-18.98633 z"
       transform="translate(0,540.36216)"
       id="path4238"
       inkscape:connector-curvature="0" />
    <path
       style="opacity:1;fill:#ffffff;fill-opacity:0.39215686;stroke:none;stroke-width:1;stroke-linecap:round;stroke-linejoin:round;stroke-miterlimit:4;stroke-dasharray:none;stroke-opacity:0.66666667"
       d="m 322.4375,278.71875 c -3.20639,3.01242 -5.80885,6.62013 -7.6875,10.55664 a 6.5697651,6.5697651 0 0 0 3.30469,0.89844 6.5697651,6.5697651 0 0 0 6.56836,-6.57031 6.5697651,6.5697651 0 0 0 -2.18555,-4.88477 z"
       transform="translate(0,540.36216)"
       id="path4261"
       inkscape:connector-curvature="0" />
    <path
       style="opacity:1;fill:#ffffff;fill-opacity:0.39215686;stroke:none;stroke-width:1;stroke-linecap:round;stroke-linejoin:round;stroke-miterlimit:4;stroke-dasharray:none;stroke-opacity:0.66666667"
       d="m 323.46484,320.83203 a 9.4037819,9.4037819 0 0 0 -5.79492,2.00391 c 0.52375,0.67263 1.07084,1.33637 1.66406,1.98047 3.53095,3.83378 8.15961,6.62955 13.15235,8.04492 a 9.4037819,9.4037819 0 0 0 0.38086,-2.625 9.4037819,9.4037819 0 0 0 -9.40235,-9.4043 z"
       transform="translate(0,540.36216)"
       id="path4263"
       inkscape:connector-curvature="0" />
    <path
       style="opacity:1;fill:#ffffff;fill-opacity:0.39215686;stroke:none;stroke-width:1;stroke-linecap:round;stroke-linejoin:round;stroke-miterlimit:4;stroke-dasharray:none;stroke-opacity:0.66666667"
       d="m 368.09375,332.11914 c -1.97117,3.2059 -4.46909,6.1197 -7.43945,8.54297 -1.2494,1.01927 -2.54812,1.932 -3.88086,2.75977 a 8.37323,8.37323 0 0 0 7.39844,4.46289 8.37323,8.37323 0 0 0 8.37304,-8.37305 8.37323,8.37323 0 0 0 -4.45117,-7.39258 z"
       transform="translate(0,540.36216)"
       id="path4256"
       inkscape:connector-curvature="0" />
    <path
       style="opacity:1;fill:#ae0789;fill-opacity:0.23529412;stroke:none;stroke-width:1;stroke-linecap:round;stroke-linejoin:round;stroke-miterlimit:4;stroke-dasharray:none;stroke-opacity:0.66666667"
       d="m 347.74609,268.56836 c -1.33885,0.0206 -2.67737,0.1089 -4.00976,0.26562 a 8.115592,8.115592 0 0 0 -0.0469,0.85743 8.115592,8.115592 0 0 0 8.11524,8.11523 8.115592,8.115592 0 0 0 8.08984,-7.60352 c -3.95609,-1.1279 -8.05456,-1.69769 -12.14844,-1.63476 z"
       transform="translate(0,540.36216)"
       id="path4248"
       inkscape:connector-curvature="0" />
    <path
       style="opacity:1;fill:#ae0789;fill-opacity:0.23529412;stroke:none;stroke-width:1;stroke-linecap:round;stroke-linejoin:round;stroke-miterlimit:4;stroke-dasharray:none;stroke-opacity:0.66666667"
       d="m 339.69531,354.8418 a 14.556539,14.556539 0 0 0 -14.3789,12.41015 c 9.42441,1.70912 19.18302,1.27748 28.4375,-1.60156 a 14.556539,14.556539 0 0 0 -14.0586,-10.80859 z"
       transform="translate(0,540.36216)"
       id="path4246"
       inkscape:connector-curvature="0" />
    <path
       style="opacity:1;fill:#ffffff;fill-opacity:0.39215686;stroke:none;stroke-width:1;stroke-linecap:round;stroke-linejoin:round;stroke-miterlimit:4;stroke-dasharray:none;stroke-opacity:0.66666667"
       d="m 301.65039,332.81836 a 6.6985841,6.6985841 0 0 0 -2.27539,5.01758 6.6985841,6.6985841 0 0 0 6.69922,6.69922 6.6985841,6.6985841 0 0 0 5.5332,-2.92383 c -3.69538,-2.40733 -7.06648,-5.35961 -9.95703,-8.79297 z"
       transform="translate(0,540.36216)"
       id="path4254"
       inkscape:connector-curvature="0" />
    <path
       style="opacity:1;fill:#ffffff;fill-opacity:0.39215686;stroke:none;stroke-width:1;stroke-linecap:round;stroke-linejoin:round;stroke-miterlimit:4;stroke-dasharray:none;stroke-opacity:0.66666667"
       d="m 272.26758,300.75391 c -0.05,7.33294 0.84621,14.37335 2.65234,20.93554 a 10.691971,10.691971 0 0 0 7.70899,-10.25976 10.691971,10.691971 0 0 0 -10.36133,-10.67578 z"
       transform="translate(0,540.36216)"
       id="path4252"
       inkscape:connector-curvature="0" />
    <path
       style="opacity:1;fill:#ae0789;fill-opacity:0.23529412;stroke:none;stroke-width:1;stroke-linecap:round;stroke-linejoin:round;stroke-miterlimit:4;stroke-dasharray:none;stroke-opacity:0.66666667"
       d="m 289.19922,286.56641 a 6.5697651,6.5697651 0 0 0 -6.57031,6.57031 6.5697651,6.5697651 0 0 0 6.57031,6.57031 6.5697651,6.5697651 0 0 0 0.0488,-0.002 c 0.002,-4.03715 0.46189,-8.34443 1.50976,-12.94336 a 6.5697651,6.5697651 0 0 0 -1.55859,-0.19531 z"
       transform="translate(0,540.36216)"
       id="path4240"
       inkscape:connector-curvature="0" />
    <path
       sodipodi:nodetypes="csssssccssssscccccc"
       inkscape:connector-curvature="0"
       id="path4173"
       d="m 356.45638,905.10525 c 5.7181,-2.10174 11.20576,-5.17458 16.25865,-9.29678 20.92413,-17.07023 27.20899,-49.42736 8.70461,-71.38862 -14.06995,-16.6984 -40.43087,-21.63769 -58.11841,-6.13374 -13.13212,11.51091 -16.94048,32.80707 -3.96769,46.89248 9.37433,10.17834 26.4898,13.05321 37.59725,2.14847 3.89216,-3.82114 6.18282,-8.7454 6.61935,-14.13605 -0.19673,-10.73637 -15.04833,-12.42861 -19.01704,-1.53943 -0.0485,0.59831 -0.51805,1.6172 -0.96873,2.05967 -2.4432,2.39861 -7.41788,1.55785 -10.19606,-1.4586 -4.89681,-5.31679 -3.24073,-14.57706 2.5101,-19.61793 8.84787,-7.75557 23.24859,-5.0609 30.95021,4.07947 11.01328,13.07071 7.04662,33.52416 -6.17424,44.30994 -18.02026,14.70119 -45.49397,9.2175 -59.81055,-8.80993 -10.2986,-12.96796 -18.2709,-33.32564 -3.45549,-63.21963 l -19.81027,1.7428 c -9.43943,27.86193 -6.09598,55.1828 8.32502,73.34167 16.6811,21.00482 45.77485,30.13378 70.55331,21.02621 z"
       style="color:#000000;font-style:normal;font-variant:normal;font-weight:normal;font-stretch:normal;font-size:medium;line-height:normal;font-family:sans-serif;text-indent:0;text-align:start;text-decoration:none;text-decoration-line:none;text-decoration-style:solid;text-decoration-color:#000000;letter-spacing:normal;word-spacing:normal;text-transform:none;direction:ltr;block-progression:tb;writing-mode:lr-tb;baseline-shift:baseline;text-anchor:start;white-space:normal;clip-rule:nonzero;display:inline;overflow:visible;visibility:visible;opacity:1;isolation:auto;mix-blend-mode:normal;color-interpolation:sRGB;color-interpolation-filters:linearRGB;solid-color:#000000;solid-opacity:1;fill:none;fill-opacity:1;fill-rule:evenodd;stroke:#000000;stroke-width:2;stroke-linecap:butt;stroke-linejoin:miter;stroke-miterlimit:4;stroke-dasharray:none;stroke-dashoffset:0;stroke-opacity:1;color-rendering:auto;image-rendering:auto;shape-rendering:auto;text-rendering:auto;enable-background:accumulate" />
    <ellipse
       style="opacity:1;fill:#ffffff;fill-opacity:0.39215686;stroke:none;stroke-width:1;stroke-linecap:round;stroke-linejoin:round;stroke-miterlimit:4;stroke-dasharray:none;stroke-opacity:1"
       id="circle4185"
       cx="141.18755"
       cy="886.4895"
       rx="2.9148393"
       ry="3.005928" />
    <ellipse
       ry="1.4634683"
       rx="1.4191208"
       cy="855.98077"
       cx="160.64224"
       id="ellipse4193"
       style="opacity:1;fill:#ffffff;fill-opacity:0.39215686;stroke:none;stroke-width:1;stroke-linecap:round;stroke-linejoin:round;stroke-miterlimit:4;stroke-dasharray:none;stroke-opacity:1" />
    <circle
       style="opacity:1;fill:#ae0789;fill-opacity:0.23529412;stroke:none;stroke-width:1;stroke-linecap:round;stroke-linejoin:round;stroke-miterlimit:4;stroke-dasharray:none;stroke-opacity:1"
       id="path4172"
       cx="177.89894"
       cy="826.02728"
       r="2.1899219" />
    <circle
       style="opacity:1;fill:#ae0789;fill-opacity:0.23529412;stroke:none;stroke-width:1;stroke-linecap:round;stroke-linejoin:round;stroke-miterlimit:4;stroke-dasharray:none;stroke-opacity:1"
       id="path4174"
       cx="168.49516"
       cy="864.80182"
       r="2.5763786" />
    <path
       sodipodi:nodetypes="cccccc"
       inkscape:connector-curvature="0"
       id="path4202"
       d="m 243.99037,703.50511 c -37.55093,6.27435 -66.17367,38.91641 -66.17367,78.24896 45.48727,23.13284 115.91218,21.93805 158.68664,0 0,-39.33255 -28.6215,-71.97461 -66.17244,-78.24896 -1.39394,-0.32979 -1.67877,-3.98494 0,-8.61082 5.85107,-20.47817 -26.34053,-8.51057 -26.34053,8.61082 z"
       style="opacity:1;fill:none;fill-opacity:1;stroke:#000000;stroke-width:2;stroke-linecap:round;stroke-linejoin:round;stroke-miterlimit:4;stroke-dasharray:none;stroke-opacity:1" />
    <circle
       style="opacity:1;fill:#ae0789;fill-opacity:0.23529412;stroke:none;stroke-width:1;stroke-linecap:round;stroke-linejoin:round;stroke-miterlimit:4;stroke-dasharray:none;stroke-opacity:0.66666667"
       id="path4242"
       cx="288.68323"
       cy="871.37158"
       r="3.2204733" />
    <circle
       style="opacity:1;fill:#ae0789;fill-opacity:0.23529412;stroke:none;stroke-width:1;stroke-linecap:round;stroke-linejoin:round;stroke-miterlimit:4;stroke-dasharray:none;stroke-opacity:0.66666667"
       id="path4244"
       cx="322.17615"
       cy="844.06195"
       r="3.2204733" />
    <circle
       style="opacity:1;fill:#ffffff;fill-opacity:0.39215686;stroke:none;stroke-width:1;stroke-linecap:round;stroke-linejoin:round;stroke-miterlimit:4;stroke-dasharray:none;stroke-opacity:0.66666667"
       id="path4250"
       cx="352.83505"
       cy="854.88275"
       r="2.4475596" />
    <circle
       style="opacity:1;fill:#ffffff;fill-opacity:0.39215686;stroke:none;stroke-width:1;stroke-linecap:round;stroke-linejoin:round;stroke-miterlimit:4;stroke-dasharray:none;stroke-opacity:0.66666667"
       id="path4258"
       cx="369.19504"
       cy="827.18671"
       r="2.0611029" />
    <circle
       style="opacity:1;fill:#ae0789;fill-opacity:0.23529412;stroke:none;stroke-width:1;stroke-linecap:round;stroke-linejoin:round;stroke-miterlimit:4;stroke-dasharray:none;stroke-opacity:0.66666667"
       id="path4295"
       cx="273.08405"
       cy="731.91199"
       r="4.1900821" />
    <circle
       style="opacity:1;fill:#ffffff;fill-opacity:0.23529412;stroke:none;stroke-width:1;stroke-linecap:round;stroke-linejoin:round;stroke-miterlimit:4;stroke-dasharray:none;stroke-opacity:0.66666667"
       id="path4306"
       cx="240.65645"
       cy="741.74957"
       r="2.7326622" />
    <circle
       style="opacity:1;fill:#ffffff;fill-opacity:0.23529412;stroke:none;stroke-width:1;stroke-linecap:round;stroke-linejoin:round;stroke-miterlimit:4;stroke-dasharray:none;stroke-opacity:0.66666667"
       id="path4308"
       cx="279.27808"
       cy="783.65039"
       r="2.7326622" />
    <path
       style="opacity:1;fill:#ffffff;fill-opacity:0.23529412;stroke:none;stroke-width:1;stroke-linecap:round;stroke-linejoin:round;stroke-miterlimit:4;stroke-dasharray:none;stroke-opacity:0.66666667"
       d="m 297.67188,173.18164 a 12.570246,12.570246 0 0 0 -2.17969,7.07227 12.570246,12.570246 0 0 0 12.57031,12.57031 12.570246,12.570246 0 0 0 8.83008,-3.63086 c -5.50732,-6.29586 -11.99245,-11.71 -19.2207,-16.01172 z"
       transform="translate(0,540.36216)"
       id="path4310"
       inkscape:connector-curvature="0" />
    <circle
       r="1.7306862"
       cy="778.64044"
       cx="201.03285"
       id="circle4315"
       style="opacity:1;fill:#ae0789;fill-opacity:0.23529412;stroke:none;stroke-width:1;stroke-linecap:round;stroke-linejoin:round;stroke-miterlimit:4;stroke-dasharray:none;stroke-opacity:0.66666667" />
    <circle
       r="1.093065"
       cy="711.50806"
       cx="242.47823"
       id="circle4317"
       style="opacity:1;fill:#ae0789;fill-opacity:0.23529412;stroke:none;stroke-width:1;stroke-linecap:round;stroke-linejoin:round;stroke-miterlimit:4;stroke-dasharray:none;stroke-opacity:0.66666667" />
  </g>
  <g
     inkscape:groupmode="layer"
     id="layer2"
     inkscape:label="Attack"
     style="display:none">
    <g
       style="display:inline"
       transform="translate(0,-540.36216)"
       id="g4218">
      <ellipse
         ry="7.3821268"
         rx="22.146383"
         cy="769.35535"
         cx="257.48175"
         id="path4277"
         style="opacity:1;fill:#a72c2c;fill-opacity:1;stroke:none;stroke-width:2;stroke-linecap:round;stroke-linejoin:round;stroke-miterlimit:4;stroke-dasharray:none;stroke-opacity:1" />
      <path
         inkscape:connector-curvature="0"
         id="rect4283"
         d="m 257.48192,761.97274 a 22.146383,7.3821267 0 0 0 -11.81193,1.14157 l 0,4.42342 23.62262,0 0,-4.41721 a 22.146383,7.3821267 0 0 0 -11.81069,-1.14778 z"
         style="opacity:1;fill:#ffffff;fill-opacity:1;stroke:none;stroke-width:2;stroke-linecap:round;stroke-linejoin:round;stroke-miterlimit:4;stroke-dasharray:none;stroke-opacity:1" />
      <path
         inkscape:connector-curvature="0"
         id="path4288"
         d="m 257.76514,770.37737 a 9.1424806,9.1424806 0 0 0 -8.50896,5.82584 22.146383,7.3821267 0 0 0 8.22574,0.53414 22.146383,7.3821267 0 0 0 8.76735,-0.61239 9.1424806,9.1424806 0 0 0 -8.48413,-5.74759 z"
         style="opacity:1;fill:#fface5;fill-opacity:1;stroke:none;stroke-width:2;stroke-linecap:round;stroke-linejoin:round;stroke-miterlimit:4;stroke-dasharray:none;stroke-opacity:1" />
      <ellipse
         style="opacity:1;fill:none;fill-opacity:1;stroke:#000000;stroke-width:1;stroke-linecap:round;stroke-linejoin:round;stroke-miterlimit:4;stroke-dasharray:none;stroke-opacity:1"
         id="ellipse4293"
         cx="257.48175"
         cy="769.35535"
         rx="22.146383"
         ry="7.3821268" />
    </g>
    <path
       style="opacity:1;fill:#ffffff;fill-opacity:1;stroke:#000000;stroke-width:1;stroke-linecap:round;stroke-linejoin:round;stroke-miterlimit:4;stroke-dasharray:none;stroke-opacity:1"
       d="m 201.79297,203.88086 a 16.808537,16.808537 0 0 0 -5.88867,12.75195 16.808537,16.808537 0 0 0 16.80859,16.8086 16.808537,16.808537 0 0 0 16.31055,-12.83203 l -27.23047,-16.72852 z"
       id="circle4353"
       inkscape:connector-curvature="0" />
    <path
       style="opacity:1;fill:#000000;fill-opacity:1;stroke:none;stroke-width:3.14466071;stroke-linecap:round;stroke-linejoin:round;stroke-miterlimit:4;stroke-dasharray:none;stroke-opacity:1"
       d="m 213.36914,210.99414 a 7.0414133,7.0414133 0 0 1 -7.01758,6.54688 7.0414133,7.0414133 0 0 1 -4.72461,-1.83008 11.129976,11.129976 0 0 0 -0.0449,0.92187 11.129976,11.129976 0 0 0 11.12891,11.13086 11.129976,11.129976 0 0 0 11.10351,-10.35351 l -10.44531,-6.41602 z"
       id="path4355"
       inkscape:connector-curvature="0" />
    <path
       style="opacity:1;fill:#ffffff;fill-opacity:1;stroke:#000000;stroke-width:1;stroke-linecap:round;stroke-linejoin:round;stroke-miterlimit:4;stroke-dasharray:none;stroke-opacity:1"
       d="m 313.96094,204.59961 -27.89063,16.57812 a 16.808537,16.808537 0 0 0 16.18164,12.26368 16.808537,16.808537 0 0 0 16.8086,-16.8086 16.808537,16.808537 0 0 0 -5.09961,-12.0332 z"
       id="circle4359"
       inkscape:connector-curvature="0" />
    <path
       style="opacity:1;fill:#000000;fill-opacity:1;stroke:none;stroke-width:3.14466071;stroke-linecap:round;stroke-linejoin:round;stroke-miterlimit:4;stroke-dasharray:none;stroke-opacity:1"
       d="m 308.8125,207.66016 -5.91211,3.51367 a 7.0414133,7.0414133 0 0 1 -7.00977,6.36719 7.0414133,7.0414133 0 0 1 -2.75195,-0.56446 l -1.90625,1.13282 a 11.129976,11.129976 0 0 0 11.01953,9.65429 11.129976,11.129976 0 0 0 11.12891,-11.13086 11.129976,11.129976 0 0 0 -4.56836,-8.97265 z"
       id="path4361"
       inkscape:connector-curvature="0" />
  </g>
  <g
     inkscape:groupmode="layer"
     id="layer3"
     inkscape:label="Idle"
     style="display:inline">
    <path
       style="fill:none;fill-rule:evenodd;stroke:#000000;stroke-width:1px;stroke-linecap:round;stroke-linejoin:round;stroke-opacity:0.66666667"
       d="m 240.21948,226.97159 c 3.63761,8.72103 28.71547,8.36662 31.56064,0.12882"
       id="path4236"
       inkscape:connector-curvature="0"
       sodipodi:nodetypes="cc" />
    <g
       transform="translate(0,-540.36216)"
       style="display:inline"
       id="g4319">
      <circle
         r="16.808537"
         cy="756.99573"
         cx="212.71199"
         id="path4260"
         style="opacity:1;fill:#ffffff;fill-opacity:1;stroke:#000000;stroke-width:1;stroke-linecap:round;stroke-linejoin:round;stroke-miterlimit:4;stroke-dasharray:none;stroke-opacity:1" />
      <path
         id="path4262"
         d="m 212.71181,745.86574 a 11.129976,11.129976 0 0 0 -1.30926,0.0907 7.0414133,7.0414133 0 0 1 1.99122,4.90663 7.0414133,7.0414133 0 0 1 -7.04194,7.0407 7.0414133,7.0414133 0 0 1 -4.72404,-1.82974 11.129976,11.129976 0 0 0 -0.046,0.9217 11.129976,11.129976 0 0 0 11.12998,11.12998 11.129976,11.129976 0 0 0 11.12997,-11.12998 11.129976,11.129976 0 0 0 -11.12997,-11.12997 z"
         style="opacity:1;fill:#000000;fill-opacity:1;stroke:none;stroke-width:3.14466071;stroke-linecap:round;stroke-linejoin:round;stroke-miterlimit:4;stroke-dasharray:none;stroke-opacity:1"
         inkscape:connector-curvature="0" />
    </g>
    <g
       transform="translate(0,-540.36216)"
       style="display:inline"
       id="g4323">
      <circle
         style="opacity:1;fill:#ffffff;fill-opacity:1;stroke:#000000;stroke-width:1;stroke-linecap:round;stroke-linejoin:round;stroke-miterlimit:4;stroke-dasharray:none;stroke-opacity:1"
         id="circle4273"
         cx="302.2515"
         cy="756.99573"
         r="16.808537" />
      <path
         style="opacity:1;fill:#000000;fill-opacity:1;stroke:none;stroke-width:3.14466071;stroke-linecap:round;stroke-linejoin:round;stroke-miterlimit:4;stroke-dasharray:none;stroke-opacity:1"
         d="m 302.25133,745.86574 a 11.129976,11.129976 0 0 0 -1.30927,0.0907 7.0414133,7.0414133 0 0 1 1.99123,4.90663 7.0414133,7.0414133 0 0 1 -7.04195,7.0407 7.0414133,7.0414133 0 0 1 -4.72403,-1.82974 11.129976,11.129976 0 0 0 -0.046,0.9217 11.129976,11.129976 0 0 0 11.12998,11.12998 11.129976,11.129976 0 0 0 11.12997,-11.12998 11.129976,11.129976 0 0 0 -11.12997,-11.12997 z"
         id="path4275"
         inkscape:connector-curvature="0" />
    </g>
  </g>
  <g
     inkscape:groupmode="layer"
     id="layer4"
     inkscape:label="Injured"
     style="display:none">
    <path
       style="opacity:1;fill:#ffffff;fill-opacity:1;stroke:#000000;stroke-width:1;stroke-linecap:round;stroke-linejoin:round;stroke-miterlimit:4;stroke-dasharray:none;stroke-opacity:1"
       d="m 221.57031,202.375 c -0.0782,1.00101 -0.21935,2.003 -0.44336,3.00195 -1.38344,11.52127 -11.99036,18.81026 -22.90429,19.73633 a 16.808537,16.808537 0 0 0 14.49023,8.32813 16.808537,16.808537 0 0 0 16.80859,-16.8086 16.808537,16.808537 0 0 0 -7.95117,-14.25781 z"
       id="circle4225"
       inkscape:connector-curvature="0" />
    <path
       style="opacity:1;fill:#000000;fill-opacity:1;stroke:none;stroke-width:3.14466071;stroke-linecap:round;stroke-linejoin:round;stroke-miterlimit:4;stroke-dasharray:none;stroke-opacity:1"
       d="m 220.45117,208.63672 c -2.21516,7.6104 -8.66587,12.96485 -16.13867,15.28711 a 11.129976,11.129976 0 0 0 8.39844,3.83984 11.129976,11.129976 0 0 0 11.13086,-11.13086 11.129976,11.129976 0 0 0 -3.39063,-7.99609 z"
       id="path4227"
       inkscape:connector-curvature="0" />
    <g
       id="g4311"
       transform="matrix(-1,0,0,1,515.10401,0)">
      <path
         style="opacity:1;fill:#ffffff;fill-opacity:1;stroke:#000000;stroke-width:1;stroke-linecap:round;stroke-linejoin:round;stroke-miterlimit:4;stroke-dasharray:none;stroke-opacity:1"
         d="m 221.57031,202.375 c -0.0782,1.00101 -0.21935,2.003 -0.44336,3.00195 -1.38344,11.52127 -11.99036,18.81026 -22.90429,19.73633 a 16.808537,16.808537 0 0 0 14.49023,8.32813 16.808537,16.808537 0 0 0 16.80859,-16.8086 16.808537,16.808537 0 0 0 -7.95117,-14.25781 z"
         id="path4307"
         inkscape:connector-curvature="0" />
      <path
         style="opacity:1;fill:#000000;fill-opacity:1;stroke:none;stroke-width:3.14466071;stroke-linecap:round;stroke-linejoin:round;stroke-miterlimit:4;stroke-dasharray:none;stroke-opacity:1"
         d="m 220.45117,208.63672 c -2.21516,7.6104 -8.66587,12.96485 -16.13867,15.28711 a 11.129976,11.129976 0 0 0 8.39844,3.83984 11.129976,11.129976 0 0 0 11.13086,-11.13086 11.129976,11.129976 0 0 0 -3.39063,-7.99609 z"
         id="path4309"
         inkscape:connector-curvature="0" />
    </g>
    <path
       style="fill:none;fill-rule:evenodd;stroke:#000000;stroke-width:1px;stroke-linecap:butt;stroke-linejoin:miter;stroke-opacity:0.66666667"
       d="m 242.83043,236.64482 c 7.26118,-3.38877 14.92774,-6.03437 27.15658,-0.31577"
       id="path4319"
       inkscape:connector-curvature="0"
       sodipodi:nodetypes="cc" />
    <path
       inkscape:connector-curvature="0"
       style="opacity:1;fill:#ffe346;fill-opacity:1;stroke:none;stroke-width:1;stroke-linecap:round;stroke-linejoin:round;stroke-miterlimit:4;stroke-dasharray:none;stroke-opacity:1"
       inkscape:transform-center-x="0.90989395"
       inkscape:transform-center-y="1.0015083"
       d="m 206.02228,136.35171 -10.97427,-0.0569 -6.26839,9.00805 -3.33707,-10.45475 -10.5042,-3.17796 8.91184,-6.40443 -0.22356,-10.97213 8.84489,6.49658 10.36603,-3.60319 -3.4454,10.41954 z"
       id="path4325" />
    <path
       id="path4332"
       d="m 206.02228,136.35171 -10.97427,-0.0569 -6.26839,9.00805 c 0.68427,-13.08998 8.67405,-11.67833 10.61253,-17.69634 z"
       inkscape:transform-center-y="1.0015083"
       inkscape:transform-center-x="0.90989395"
       style="opacity:1;fill:#000000;fill-opacity:0.19607843;stroke:none;stroke-width:1;stroke-linecap:round;stroke-linejoin:round;stroke-miterlimit:4;stroke-dasharray:none;stroke-opacity:1"
       inkscape:connector-curvature="0"
       sodipodi:nodetypes="ccccc" />
    <path
       id="path4334"
       d="m 174.93835,131.67013 8.91184,-6.40443 -0.22356,-10.97213 8.84489,6.49658 c 0,0 -6.27238,12.81357 -17.53317,10.87998 z"
       inkscape:transform-center-y="1.0015083"
       inkscape:transform-center-x="0.90989395"
       style="opacity:1;fill:#ffffff;fill-opacity:0.47058824;stroke:none;stroke-width:1;stroke-linecap:round;stroke-linejoin:round;stroke-miterlimit:4;stroke-dasharray:none;stroke-opacity:1"
       inkscape:connector-curvature="0"
       sodipodi:nodetypes="ccccc" />
    <path
       inkscape:connector-curvature="0"
       id="path4336"
       d="m 206.02228,136.35171 -10.97427,-0.0569 -6.26839,9.00805 -3.33707,-10.45475 -10.5042,-3.17796 8.91184,-6.40443 -0.22356,-10.97213 8.84489,6.49658 10.36603,-3.60319 -3.4454,10.41954 z"
       inkscape:transform-center-y="1.0015083"
       inkscape:transform-center-x="0.90989395"
       style="opacity:1;fill:none;fill-opacity:1;stroke:#000000;stroke-width:1;stroke-linecap:round;stroke-linejoin:round;stroke-miterlimit:4;stroke-dasharray:none;stroke-opacity:1" />
    <path
       inkscape:connector-curvature="0"
       id="path4346"
       d="m 188.71065,174.71182 -7.62704,-0.0396 -4.3565,6.26053 -2.31924,-7.26598 -7.30035,-2.20866 6.19367,-4.45104 -0.15537,-7.62556 6.14714,4.51508 7.20433,-2.50419 -2.39453,7.24152 z"
       inkscape:transform-center-y="1.0015083"
       inkscape:transform-center-x="0.90989395"
       style="opacity:1;fill:#ffe346;fill-opacity:1;stroke:none;stroke-width:1;stroke-linecap:round;stroke-linejoin:round;stroke-miterlimit:4;stroke-dasharray:none;stroke-opacity:1" />
    <path
       sodipodi:nodetypes="ccccc"
       inkscape:connector-curvature="0"
       style="opacity:1;fill:#000000;fill-opacity:0.19607843;stroke:none;stroke-width:1;stroke-linecap:round;stroke-linejoin:round;stroke-miterlimit:4;stroke-dasharray:none;stroke-opacity:1"
       inkscape:transform-center-x="0.90989395"
       inkscape:transform-center-y="1.0015083"
       d="m 188.71065,174.71182 -7.62704,-0.0396 -4.3565,6.26053 c 0.47557,-9.09745 6.02841,-8.11636 7.37565,-12.29883 z"
       id="path4348" />
    <path
       sodipodi:nodetypes="ccccc"
       inkscape:connector-curvature="0"
       style="opacity:1;fill:#ffffff;fill-opacity:0.47058824;stroke:none;stroke-width:1;stroke-linecap:round;stroke-linejoin:round;stroke-miterlimit:4;stroke-dasharray:none;stroke-opacity:1"
       inkscape:transform-center-x="0.90989395"
       inkscape:transform-center-y="1.0015083"
       d="m 167.10752,171.45815 6.19367,-4.45104 -0.15537,-7.62556 6.14714,4.51508 c 0,0 -4.35927,8.90536 -12.18544,7.56152 z"
       id="path4350" />
    <path
       inkscape:connector-curvature="0"
       style="opacity:1;fill:none;fill-opacity:1;stroke:#000000;stroke-width:1;stroke-linecap:round;stroke-linejoin:round;stroke-miterlimit:4;stroke-dasharray:none;stroke-opacity:1"
       inkscape:transform-center-x="0.90989395"
       inkscape:transform-center-y="1.0015083"
       d="m 188.71065,174.71182 -7.62704,-0.0396 -4.3565,6.26053 -2.31924,-7.26598 -7.30035,-2.20866 6.19367,-4.45104 -0.15537,-7.62556 6.14714,4.51508 7.20433,-2.50419 -2.39453,7.24152 z"
       id="path4352" />
    <path
       inkscape:connector-curvature="0"
       id="path4356"
       d="m 236.54923,139.49217 -5.85725,-0.0304 -3.3456,4.80783 -1.78108,-5.57997 -5.60636,-1.69616 4.75648,-3.41821 -0.11932,-5.85611 4.72075,3.46739 5.53261,-1.92312 -1.83889,5.56119 z"
       inkscape:transform-center-y="1.0015083"
       inkscape:transform-center-x="0.90989395"
       style="opacity:1;fill:#ffe346;fill-opacity:1;stroke:none;stroke-width:1;stroke-linecap:round;stroke-linejoin:round;stroke-miterlimit:4;stroke-dasharray:none;stroke-opacity:1" />
    <path
       sodipodi:nodetypes="ccccc"
       inkscape:connector-curvature="0"
       style="opacity:1;fill:#000000;fill-opacity:0.19607843;stroke:none;stroke-width:1;stroke-linecap:round;stroke-linejoin:round;stroke-miterlimit:4;stroke-dasharray:none;stroke-opacity:1"
       inkscape:transform-center-x="0.90989395"
       inkscape:transform-center-y="1.0015083"
       d="m 236.54923,139.49217 -5.85725,-0.0304 -3.3456,4.80783 c 0.36521,-6.98646 4.62957,-6.23303 5.66419,-9.44499 z"
       id="path4358" />
    <path
       sodipodi:nodetypes="ccccc"
       inkscape:connector-curvature="0"
       style="opacity:1;fill:#ffffff;fill-opacity:0.47058824;stroke:none;stroke-width:1;stroke-linecap:round;stroke-linejoin:round;stroke-miterlimit:4;stroke-dasharray:none;stroke-opacity:1"
       inkscape:transform-center-x="0.90989395"
       inkscape:transform-center-y="1.0015083"
       d="m 219.95894,136.99349 4.75648,-3.41821 -0.11932,-5.85611 4.72075,3.46739 c 0,0 -3.34774,6.83894 -9.35791,5.80693 z"
       id="path4360" />
    <path
       inkscape:connector-curvature="0"
       style="opacity:1;fill:none;fill-opacity:1;stroke:#000000;stroke-width:1;stroke-linecap:round;stroke-linejoin:round;stroke-miterlimit:4;stroke-dasharray:none;stroke-opacity:1"
       inkscape:transform-center-x="0.90989395"
       inkscape:transform-center-y="1.0015083"
       d="m 236.54923,139.49217 -5.85725,-0.0304 -3.3456,4.80783 -1.78108,-5.57997 -5.60636,-1.69616 4.75648,-3.41821 -0.11932,-5.85611 4.72075,3.46739 5.53261,-1.92312 -1.83889,5.56119 z"
       id="path4362" />
  </g>
</svg>
