<?xml version="1.0" encoding="UTF-8" standalone="no"?>
<!-- Created with Inkscape (http://www.inkscape.org/) -->

<svg
   xmlns:dc="http://purl.org/dc/elements/1.1/"
   xmlns:cc="http://creativecommons.org/ns#"
   xmlns:rdf="http://www.w3.org/1999/02/22-rdf-syntax-ns#"
   xmlns:svg="http://www.w3.org/2000/svg"
   xmlns="http://www.w3.org/2000/svg"
   xmlns:sodipodi="http://sodipodi.sourceforge.net/DTD/sodipodi-0.dtd"
   xmlns:inkscape="http://www.inkscape.org/namespaces/inkscape"
   width="256"
   height="256"
   viewBox="0 0 256 256"
   id="svg2"
   version="1.1"
   inkscape:version="0.91 r13725"
   sodipodi:docname="Code'em All.svg"
   inkscape:export-filename="D:\Arts\Renders\favicon.png"
   inkscape:export-xdpi="5.625"
   inkscape:export-ydpi="5.625">
  <defs
     id="defs4" />
  <sodipodi:namedview
     id="base"
     pagecolor="#ffffff"
     bordercolor="#666666"
     borderopacity="1.0"
     inkscape:pageopacity="0.0"
     inkscape:pageshadow="2"
     inkscape:zoom="1.979899"
     inkscape:cx="-17.851214"
     inkscape:cy="65.868105"
     inkscape:document-units="px"
     inkscape:current-layer="layer1"
     showgrid="false"
     units="px"
     inkscape:showpageshadow="false"
     inkscape:window-width="1920"
     inkscape:window-height="1017"
     inkscape:window-x="-8"
     inkscape:window-y="-8"
     inkscape:window-maximized="1" />
  <metadata
     id="metadata7">
    <rdf:RDF>
      <cc:Work
         rdf:about="">
        <dc:format>image/svg+xml</dc:format>
        <dc:type
           rdf:resource="http://purl.org/dc/dcmitype/StillImage" />
        <dc:title />
      </cc:Work>
    </rdf:RDF>
  </metadata>
  <g
     inkscape:label="Layer 1"
     inkscape:groupmode="layer"
     id="layer1"
     transform="translate(0,-796.36216)">
    <g
       id="g4262"
       transform="matrix(1.1070422,0,0,1.1070422,-13.701404,-98.94544)">
      <rect
         y="854.40143"
         x="36.753471"
         height="137.304"
         width="181.02269"
         id="rect4215"
         style="opacity:1;fill:#def2ff;fill-opacity:1;stroke:none;stroke-width:4;stroke-linecap:round;stroke-linejoin:round;stroke-miterlimit:4;stroke-dasharray:none;stroke-opacity:0.35294118" />
      <path
         id="rect4136"
         d="m 47.683992,818.19672 c -11.353197,0 -20.49321,9.14002 -20.49321,20.4932 l 0,74.45762 62.612862,0 a 38.159196,38.159196 0 0 1 38.144106,-37.81656 38.159196,38.159196 0 0 1 38.14674,37.81656 l 62.61022,0 0,-74.45762 c 0,-11.35318 -9.14002,-20.4932 -20.4932,-20.4932 l -160.527518,0 z"
         style="opacity:1;fill:#bf1c0c;fill-opacity:1;stroke:none;stroke-width:15;stroke-linecap:round;stroke-linejoin:round;stroke-miterlimit:4;stroke-dasharray:none;stroke-opacity:1"
         inkscape:connector-curvature="0" />
      <path
         id="path4179"
         d="m 127.26925,866.56401 a 50.325049,50.325049 0 0 0 -50.311245,49.9636 l 10.151248,0 7.019663,0 a 33.161302,33.161302 0 0 1 33.140334,-32.80105 33.161302,33.161302 0 0 1 33.14868,32.80105 l 7.01409,0 10.14569,0 a 50.325049,50.325049 0 0 0 -50.30846,-49.9636 z"
         style="opacity:1;fill:#000000;fill-opacity:1;stroke:none;stroke-width:4.02722597;stroke-linecap:round;stroke-linejoin:round;stroke-miterlimit:4;stroke-dasharray:none;stroke-opacity:0.35294118"
         inkscape:connector-curvature="0" />
      <path
         id="path4141"
         d="m 55.537345,818.19672 c -0.05689,15.67894 -12.677223,28.32139 -28.346563,28.41789 l 0,5.40991 c 18.59392,-0.0974 33.699136,-15.2246 33.756474,-33.8278 l -5.409911,0 z"
         style="color:#000000;font-style:normal;font-variant:normal;font-weight:normal;font-stretch:normal;font-size:medium;line-height:normal;font-family:sans-serif;text-indent:0;text-align:start;text-decoration:none;text-decoration-line:none;text-decoration-style:solid;text-decoration-color:#000000;letter-spacing:normal;word-spacing:normal;text-transform:none;direction:ltr;block-progression:tb;writing-mode:lr-tb;baseline-shift:baseline;text-anchor:start;white-space:normal;clip-rule:nonzero;display:inline;overflow:visible;visibility:visible;opacity:1;isolation:auto;mix-blend-mode:normal;color-interpolation:sRGB;color-interpolation-filters:linearRGB;solid-color:#000000;solid-opacity:1;fill:#000000;fill-opacity:0.35294118;fill-rule:nonzero;stroke:none;stroke-width:4;stroke-linecap:round;stroke-linejoin:round;stroke-miterlimit:4;stroke-dasharray:none;stroke-dashoffset:0;stroke-opacity:1;color-rendering:auto;image-rendering:auto;shape-rendering:auto;text-rendering:auto;enable-background:accumulate"
         inkscape:connector-curvature="0" />
      <path
         id="circle4143"
         d="m 90.498374,818.19672 c -0.10131,34.96462 -28.349416,63.23203 -63.307592,63.36042 l 0,5.40992 c 37.882396,-0.12903 68.615752,-30.88161 68.717502,-68.77034 l -5.40991,0 z"
         style="color:#000000;font-style:normal;font-variant:normal;font-weight:normal;font-stretch:normal;font-size:medium;line-height:normal;font-family:sans-serif;text-indent:0;text-align:start;text-decoration:none;text-decoration-line:none;text-decoration-style:solid;text-decoration-color:#000000;letter-spacing:normal;word-spacing:normal;text-transform:none;direction:ltr;block-progression:tb;writing-mode:lr-tb;baseline-shift:baseline;text-anchor:start;white-space:normal;clip-rule:nonzero;display:inline;overflow:visible;visibility:visible;opacity:1;isolation:auto;mix-blend-mode:normal;color-interpolation:sRGB;color-interpolation-filters:linearRGB;solid-color:#000000;solid-opacity:1;fill:#000000;fill-opacity:0.35294118;fill-rule:nonzero;stroke:none;stroke-width:4;stroke-linecap:round;stroke-linejoin:round;stroke-miterlimit:4;stroke-dasharray:none;stroke-dashoffset:0;stroke-opacity:1;color-rendering:auto;image-rendering:auto;shape-rendering:auto;text-rendering:auto;enable-background:accumulate"
         inkscape:connector-curvature="0" />
      <path
         id="circle4151"
         d="m 194.75012,818.19672 c 0.0575,18.66341 15.26212,33.83307 33.93874,33.83307 0.005,0 0.0108,2e-5 0.0158,0 l 0,-5.40991 c -0.005,1e-5 -0.0108,0 -0.0158,0 -15.75282,0 -28.4717,-12.68404 -28.52883,-28.42316 l -5.40991,0 z"
         style="color:#000000;font-style:normal;font-variant:normal;font-weight:normal;font-stretch:normal;font-size:medium;line-height:normal;font-family:sans-serif;text-indent:0;text-align:start;text-decoration:none;text-decoration-line:none;text-decoration-style:solid;text-decoration-color:#000000;letter-spacing:normal;word-spacing:normal;text-transform:none;direction:ltr;block-progression:tb;writing-mode:lr-tb;baseline-shift:baseline;text-anchor:start;white-space:normal;clip-rule:nonzero;display:inline;overflow:visible;visibility:visible;opacity:1;isolation:auto;mix-blend-mode:normal;color-interpolation:sRGB;color-interpolation-filters:linearRGB;solid-color:#000000;solid-opacity:1;fill:#000000;fill-opacity:0.35294118;fill-rule:nonzero;stroke:none;stroke-width:4;stroke-linecap:round;stroke-linejoin:round;stroke-miterlimit:4;stroke-dasharray:none;stroke-dashoffset:0;stroke-opacity:1;color-rendering:auto;image-rendering:auto;shape-rendering:auto;text-rendering:auto;enable-background:accumulate"
         inkscape:connector-curvature="0" />
      <path
         id="circle4153"
         d="m 159.67022,818.19672 c 0.10198,37.96844 30.96578,68.77561 68.95789,68.77561 0.0257,0 0.0508,-0.003 0.0765,-0.003 l 0,-5.40992 c -0.0257,3e-5 -0.0509,0.003 -0.0765,0.003 -35.06837,0 -63.44642,-28.32139 -63.54797,-63.3657 l -5.40992,0 z"
         style="color:#000000;font-style:normal;font-variant:normal;font-weight:normal;font-stretch:normal;font-size:medium;line-height:normal;font-family:sans-serif;text-indent:0;text-align:start;text-decoration:none;text-decoration-line:none;text-decoration-style:solid;text-decoration-color:#000000;letter-spacing:normal;word-spacing:normal;text-transform:none;direction:ltr;block-progression:tb;writing-mode:lr-tb;baseline-shift:baseline;text-anchor:start;white-space:normal;clip-rule:nonzero;display:inline;overflow:visible;visibility:visible;opacity:1;isolation:auto;mix-blend-mode:normal;color-interpolation:sRGB;color-interpolation-filters:linearRGB;solid-color:#000000;solid-opacity:1;fill:#000000;fill-opacity:0.35294118;fill-rule:nonzero;stroke:none;stroke-width:4;stroke-linecap:round;stroke-linejoin:round;stroke-miterlimit:4;stroke-dasharray:none;stroke-dashoffset:0;stroke-opacity:1;color-rendering:auto;image-rendering:auto;shape-rendering:auto;text-rendering:auto;enable-background:accumulate"
         inkscape:connector-curvature="0" />
      <path
         sodipodi:nodetypes="cccccccccccc"
         inkscape:connector-curvature="0"
         id="path4227"
         d="m 127.01792,859.55712 c -25.82899,-0.0203 -49.857586,21.62444 -51.766625,47.50314 l -48.051182,0 0.08453,8.11487 55.484531,0 c -1.76877,-25.34888 20.916976,-48.80301 46.327656,-47.43976 24.5824,-0.0108 45.70977,22.92079 44.02686,47.43976 l 55.68953,0 -0.005,-8.11487 c -10.97208,-0.009 -36.95934,0.0177 -47.9094,-0.0135 -2.48309,-26.49395 -27.25457,-48.40728 -53.87987,-47.48993 z"
         style="opacity:1;fill:#ffffff;fill-opacity:1;stroke:#000000;stroke-width:2.70495582;stroke-linecap:butt;stroke-linejoin:miter;stroke-miterlimit:4;stroke-dasharray:none;stroke-opacity:1" />
      <path
         inkscape:connector-curvature="0"
         style="opacity:1;fill:#bf1c0c;fill-opacity:1;stroke:none;stroke-width:15;stroke-linecap:round;stroke-linejoin:round;stroke-miterlimit:4;stroke-dasharray:none;stroke-opacity:1"
         d="m 47.683992,1030.5276 c -11.353197,0 -20.49321,-9.14 -20.49321,-20.4932 l 0,-74.45763 62.612862,0 a 38.159196,38.159196 0 0 0 38.144106,37.81656 38.159196,38.159196 0 0 0 38.14674,-37.81656 l 62.61022,0 0,74.45763 c 0,11.3532 -9.14002,20.4932 -20.4932,20.4932 l -160.527518,0 z"
         id="path4301" />
      <path
         inkscape:connector-curvature="0"
         style="opacity:1;fill:#000000;fill-opacity:1;stroke:none;stroke-width:4.02722597;stroke-linecap:round;stroke-linejoin:round;stroke-miterlimit:4;stroke-dasharray:none;stroke-opacity:0.35294118"
         d="M 127.26925,982.1603 A 50.325049,50.325049 0 0 1 76.958005,932.1967 l 10.151248,0 7.019663,0 a 33.161302,33.161302 0 0 0 33.140334,32.80105 33.161302,33.161302 0 0 0 33.14868,-32.80105 l 7.01409,0 10.14569,0 a 50.325049,50.325049 0 0 1 -50.30846,49.9636 z"
         id="path4303" />
      <path
         inkscape:connector-curvature="0"
         style="color:#000000;font-style:normal;font-variant:normal;font-weight:normal;font-stretch:normal;font-size:medium;line-height:normal;font-family:sans-serif;text-indent:0;text-align:start;text-decoration:none;text-decoration-line:none;text-decoration-style:solid;text-decoration-color:#000000;letter-spacing:normal;word-spacing:normal;text-transform:none;direction:ltr;block-progression:tb;writing-mode:lr-tb;baseline-shift:baseline;text-anchor:start;white-space:normal;clip-rule:nonzero;display:inline;overflow:visible;visibility:visible;opacity:1;isolation:auto;mix-blend-mode:normal;color-interpolation:sRGB;color-interpolation-filters:linearRGB;solid-color:#000000;solid-opacity:1;fill:#000000;fill-opacity:0.35294118;fill-rule:nonzero;stroke:none;stroke-width:4;stroke-linecap:round;stroke-linejoin:round;stroke-miterlimit:4;stroke-dasharray:none;stroke-dashoffset:0;stroke-opacity:1;color-rendering:auto;image-rendering:auto;shape-rendering:auto;text-rendering:auto;enable-background:accumulate"
         d="m 55.537345,1030.5276 c -0.05689,-15.6789 -12.677223,-28.3214 -28.346563,-28.4179 l 0,-5.40991 c 18.59392,0.0974 33.699136,15.22461 33.756474,33.82781 l -5.409911,0 z"
         id="path4305" />
      <path
         inkscape:connector-curvature="0"
         style="color:#000000;font-style:normal;font-variant:normal;font-weight:normal;font-stretch:normal;font-size:medium;line-height:normal;font-family:sans-serif;text-indent:0;text-align:start;text-decoration:none;text-decoration-line:none;text-decoration-style:solid;text-decoration-color:#000000;letter-spacing:normal;word-spacing:normal;text-transform:none;direction:ltr;block-progression:tb;writing-mode:lr-tb;baseline-shift:baseline;text-anchor:start;white-space:normal;clip-rule:nonzero;display:inline;overflow:visible;visibility:visible;opacity:1;isolation:auto;mix-blend-mode:normal;color-interpolation:sRGB;color-interpolation-filters:linearRGB;solid-color:#000000;solid-opacity:1;fill:#000000;fill-opacity:0.35294118;fill-rule:nonzero;stroke:none;stroke-width:4;stroke-linecap:round;stroke-linejoin:round;stroke-miterlimit:4;stroke-dasharray:none;stroke-dashoffset:0;stroke-opacity:1;color-rendering:auto;image-rendering:auto;shape-rendering:auto;text-rendering:auto;enable-background:accumulate"
         d="M 90.498374,1030.5276 C 90.397064,995.56297 62.148958,967.29556 27.190782,967.16717 l 0,-5.40992 c 37.882396,0.12903 68.615752,30.88161 68.717502,68.77035 l -5.40991,0 z"
         id="path4307" />
      <path
         inkscape:connector-curvature="0"
         style="color:#000000;font-style:normal;font-variant:normal;font-weight:normal;font-stretch:normal;font-size:medium;line-height:normal;font-family:sans-serif;text-indent:0;text-align:start;text-decoration:none;text-decoration-line:none;text-decoration-style:solid;text-decoration-color:#000000;letter-spacing:normal;word-spacing:normal;text-transform:none;direction:ltr;block-progression:tb;writing-mode:lr-tb;baseline-shift:baseline;text-anchor:start;white-space:normal;clip-rule:nonzero;display:inline;overflow:visible;visibility:visible;opacity:1;isolation:auto;mix-blend-mode:normal;color-interpolation:sRGB;color-interpolation-filters:linearRGB;solid-color:#000000;solid-opacity:1;fill:#000000;fill-opacity:0.35294118;fill-rule:nonzero;stroke:none;stroke-width:4;stroke-linecap:round;stroke-linejoin:round;stroke-miterlimit:4;stroke-dasharray:none;stroke-dashoffset:0;stroke-opacity:1;color-rendering:auto;image-rendering:auto;shape-rendering:auto;text-rendering:auto;enable-background:accumulate"
         d="m 194.75012,1030.5276 c 0.0575,-18.6634 15.26212,-33.83308 33.93874,-33.83308 0.005,0 0.0108,-2e-5 0.0158,0 l 0,5.40988 c -0.005,0 -0.0108,0 -0.0158,0 -15.75282,0 -28.4717,12.6841 -28.52883,28.4232 l -5.40991,0 z"
         id="path4309" />
      <path
         inkscape:connector-curvature="0"
         style="color:#000000;font-style:normal;font-variant:normal;font-weight:normal;font-stretch:normal;font-size:medium;line-height:normal;font-family:sans-serif;text-indent:0;text-align:start;text-decoration:none;text-decoration-line:none;text-decoration-style:solid;text-decoration-color:#000000;letter-spacing:normal;word-spacing:normal;text-transform:none;direction:ltr;block-progression:tb;writing-mode:lr-tb;baseline-shift:baseline;text-anchor:start;white-space:normal;clip-rule:nonzero;display:inline;overflow:visible;visibility:visible;opacity:1;isolation:auto;mix-blend-mode:normal;color-interpolation:sRGB;color-interpolation-filters:linearRGB;solid-color:#000000;solid-opacity:1;fill:#000000;fill-opacity:0.35294118;fill-rule:nonzero;stroke:none;stroke-width:4;stroke-linecap:round;stroke-linejoin:round;stroke-miterlimit:4;stroke-dasharray:none;stroke-dashoffset:0;stroke-opacity:1;color-rendering:auto;image-rendering:auto;shape-rendering:auto;text-rendering:auto;enable-background:accumulate"
         d="m 159.67022,1030.5276 c 0.10198,-37.96845 30.96578,-68.77562 68.95789,-68.77562 0.0257,0 0.0508,0.003 0.0765,0.003 l 0,5.40992 c -0.0257,-3e-5 -0.0509,-0.003 -0.0765,-0.003 -35.06837,0 -63.44642,28.32139 -63.54797,63.3657 l -5.40992,0 z"
         id="path4311" />
      <path
         style="opacity:1;fill:#ffffff;fill-opacity:1;stroke:#000000;stroke-width:2.70495582;stroke-linecap:butt;stroke-linejoin:miter;stroke-miterlimit:4;stroke-dasharray:none;stroke-opacity:1"
         d="m 127.01792,989.16719 c -25.82899,0.0203 -49.857586,-21.62444 -51.766625,-47.50314 l -48.051182,0 0.08453,-8.11487 55.484531,0 c -1.76877,25.34888 20.916976,48.80301 46.327656,47.43976 24.5824,0.0108 45.70977,-22.92079 44.02686,-47.43976 l 55.68953,0 -0.005,8.11487 c -10.97208,0.009 -36.95934,-0.0177 -47.9094,0.0135 -2.48309,26.49395 -27.25457,48.40728 -53.87987,47.48993 z"
         id="path4313"
         inkscape:connector-curvature="0"
         sodipodi:nodetypes="cccccccccccc" />
      <path
         sodipodi:nodetypes="ssccscccccccss"
         inkscape:connector-curvature="0"
         id="rect4315"
         transform="translate(0,796.36216)"
         d="m 47.683594,21.833984 c -11.353197,0 -20.492188,9.140961 -20.492188,20.494141 l 0,74.457035 0,22.42968 0,74.45704 c 0,4.44213 1.413297,8.53517 3.796875,11.88476 l 64.408203,-66.87891 c -3.583438,-5.86544 -5.516081,-12.58987 -5.59375,-19.46289 l 0,-22.42968 c 0.188067,-20.935044 17.208656,-37.809212 38.144536,-37.81641 11.7474,0.009 22.83593,5.428231 30.06054,14.691406 l 64.01172,-66.46875 c -3.63929,-3.320047 -8.47156,-5.357422 -13.80859,-5.357422 z"
         style="opacity:1;fill:#ffffff;fill-opacity:0.46634617;stroke:none;stroke-width:2;stroke-linecap:butt;stroke-linejoin:miter;stroke-miterlimit:4;stroke-dasharray:none;stroke-opacity:1" />
    </g>
  </g>
</svg>
